<?xml version="1.0" standalone="no"?>
<!DOCTYPE svg PUBLIC "-//W3C//DTD SVG 20010904//EN"
 "http://www.w3.org/TR/2001/REC-SVG-20010904/DTD/svg10.dtd">
<svg version="1.0" xmlns="http://www.w3.org/2000/svg"
 width="312.000000pt" height="312.000000pt" viewBox="0 0 312.000000 312.000000"
 preserveAspectRatio="xMidYMid meet">

<g transform="translate(0.000000,312.000000) scale(0.100000,-0.100000)"
fill="#000000" stroke="none">
<path d="M1371 3110 c-345 -44 -661 -199 -912 -450 -224 -223 -362 -481 -430
-800 -33 -152 -33 -448 0 -600 68 -319 206 -577 430 -801 224 -224 482 -362
801 -430 152 -33 448 -33 600 0 319 68 577 206 801 430 224 224 362 482 430
801 19 88 23 136 23 300 0 164 -4 212 -23 300 -68 319 -206 577 -430 801 -225
224 -488 365 -801 429 -120 25 -369 35 -489 20z m174 -437 c-4 -43 -11 -83
-17 -90 -5 -7 -12 -39 -15 -73 -3 -33 -10 -60 -14 -60 -5 0 -9 -15 -9 -32 0
-37 -14 -116 -60 -353 -18 -88 -36 -191 -40 -230 -5 -38 -16 -104 -24 -145 -9
-41 -19 -112 -23 -158 -5 -74 -4 -82 11 -76 9 3 16 9 16 13 0 4 15 14 33 23
32 16 75 50 129 100 16 15 46 37 68 49 22 13 40 26 40 30 0 4 10 9 23 13 12 3
51 33 85 66 35 33 68 60 73 60 5 0 9 20 9 45 0 25 4 64 10 87 11 53 39 195 50
263 22 135 30 191 45 319 9 76 21 158 27 182 l12 44 218 0 218 0 0 -37 c0 -98
-53 -385 -93 -508 -17 -54 -33 -132 -39 -195 -6 -58 -14 -107 -18 -110 -4 -3
-10 -23 -13 -45 -47 -312 -81 -521 -87 -525 -4 -3 -15 -59 -24 -125 -18 -130
-56 -337 -87 -480 -16 -75 -49 -308 -49 -352 0 -10 -51 -13 -221 -13 l-221 0
6 58 c3 31 10 82 16 112 6 30 14 72 17 92 3 21 9 38 13 38 4 0 11 36 14 80 4
44 11 80 15 80 5 0 12 24 15 53 4 28 11 77 16 107 4 30 13 91 20 135 6 44 15
82 19 85 11 6 26 180 16 180 -14 0 -103 -57 -179 -115 -43 -33 -95 -71 -115
-85 -34 -23 -46 -32 -85 -67 -8 -7 -25 -15 -40 -19 -14 -3 -26 -11 -26 -18 0
-6 -9 -18 -20 -26 -12 -9 -20 -26 -20 -43 0 -49 -52 -332 -61 -335 -5 -2 -9
-20 -9 -40 0 -54 -23 -192 -32 -192 -4 0 -8 -18 -8 -40 l0 -40 -211 0 -211 0
5 88 c3 48 26 206 52 352 26 146 49 288 52 315 3 28 10 53 15 56 5 3 13 44 18
90 10 93 54 358 190 1134 22 127 40 241 40 255 0 14 5 42 11 63 l10 37 226 0
225 0 -7 -77z"/>
</g>
</svg>
