<?xml version="1.0" standalone="no"?>
<!DOCTYPE svg PUBLIC "-//W3C//DTD SVG 20010904//EN"
 "http://www.w3.org/TR/2001/REC-SVG-20010904/DTD/svg10.dtd">
<svg version="1.0" xmlns="http://www.w3.org/2000/svg"
 width="312.000000pt" height="312.000000pt" viewBox="0 0 312.000000 312.000000"
 preserveAspectRatio="xMidYMid meet">

<g transform="translate(0.000000,312.000000) scale(0.100000,-0.100000)"
fill="#000000" stroke="none">
<path d="M1091 2713 c-6 -21 -11 -49 -11 -63 0 -14 -18 -128 -40 -255 -136
-776 -180 -1041 -190 -1134 -5 -46 -13 -87 -18 -90 -5 -3 -12 -28 -15 -56 -3
-27 -26 -169 -52 -315 -26 -146 -49 -304 -52 -352 l-5 -88 211 0 211 0 0 40
c0 22 4 40 8 40 9 0 32 138 32 192 0 20 4 38 9 40 9 3 61 286 61 335 0 17 8
34 20 43 11 8 20 20 20 26 0 7 12 15 26 18 15 4 32 12 40 19 39 35 51 44 85
67 20 14 72 52 115 85 76 58 165 115 179 115 10 0 -5 -174 -16 -180 -4 -3 -13
-41 -19 -85 -7 -44 -16 -105 -20 -135 -5 -30 -12 -79 -16 -107 -3 -29 -10 -53
-15 -53 -4 0 -11 -36 -15 -80 -3 -44 -10 -80 -14 -80 -4 0 -10 -17 -13 -38 -3
-20 -11 -62 -17 -92 -6 -30 -13 -81 -16 -112 l-6 -58 221 0 c170 0 221 3 221
13 0 44 33 277 49 352 31 143 69 350 87 480 9 66 20 122 24 125 6 4 40 213 87
525 3 22 9 42 13 45 4 3 12 52 18 110 6 63 22 141 39 195 40 123 93 410 93
508 l0 37 -218 0 -218 0 -12 -44 c-6 -24 -18 -106 -27 -182 -15 -128 -23 -184
-45 -319 -11 -68 -39 -210 -50 -263 -6 -23 -10 -62 -10 -87 0 -25 -4 -45 -9
-45 -5 0 -38 -27 -73 -60 -34 -33 -73 -63 -85 -66 -13 -4 -23 -9 -23 -13 0 -4
-18 -17 -40 -30 -22 -12 -52 -34 -68 -49 -54 -50 -97 -84 -129 -100 -18 -9
-33 -19 -33 -23 0 -4 -7 -10 -16 -13 -15 -6 -16 2 -11 76 4 46 14 117 23 158
8 41 19 107 24 145 4 39 22 142 40 230 46 237 60 316 60 353 0 17 4 32 9 32 4
0 11 27 14 60 3 34 10 66 15 73 6 7 13 47 17 90 l7 77 -225 0 -226 0 -10 -37z"/>
</g>
</svg>
